<svg width="18" height="14" viewBox="0 0 18 14" fill="none" xmlns="http://www.w3.org/2000/svg">
<path d="M5.42914 1.08477C4.49669 1.31788 3.88213 2.86489 4.39074 4.1364L4.34835 4.22116L1.76294 3.58541C1.8689 2.18675 3.1828 1 5.40795 1L5.42914 1.08477Z" fill="white"/>
<path d="M9.96419 4.15788V8.43865C9.96419 9.4804 10.1611 9.67553 10.3271 9.84009L10.3316 9.8445L10.3456 9.8585C10.46 9.97295 10.5745 10.0416 10.6661 10.0965C10.727 10.1331 10.778 10.1637 10.8118 10.1976V10.24H9.60389C7.95093 10.24 6.76419 9.45585 6.78538 7.37906L6.76419 3.14067C6.76419 2.35658 6.53107 1.29698 5.81055 1.08506L5.83174 1.02148C8.5443 1.08506 9.96419 1.99631 9.96419 4.15788Z" fill="white"/>
<path d="M1 8.0365C1 10.6855 5.02646 11.0457 6.31916 8.60868L6.29797 8.58749C5.40791 9.32921 4.00925 8.65106 4.00925 7.33717C4.00925 6.15042 4.89931 5.4299 6.34036 5.1756C6.37214 5.1756 6.40393 5.1703 6.43571 5.165C6.4675 5.1597 6.4993 5.15441 6.53108 5.15441V4.87891C6.49929 4.87891 6.46751 4.8842 6.43572 4.8895C6.40393 4.89481 6.37215 4.90011 6.34036 4.90011C2.48343 5.36633 1 6.36234 1 8.0365Z" fill="white"/>
<path d="M16.9364 4.51794L15.4741 4.70867C15.3258 4.70867 15.2199 4.81464 15.1986 4.96298V11.363C15.1986 12.4045 15.3954 12.5998 15.5805 12.7832C15.5874 12.7902 15.5944 12.7971 15.6013 12.8039C15.7157 12.9184 15.8302 12.9871 15.9218 13.042C15.9827 13.0786 16.0337 13.1092 16.0675 13.1431V13.1855H14.8596C13.2067 13.1855 12.0199 12.4014 12.0411 10.3245V4.79344C12.0411 4.79344 11.257 4.81464 10.261 4.85702V4.53914H10.3457C12.6345 4.22126 14.3934 2.97094 15.0503 1.14844H15.2199V4.26364H17L16.9364 4.51794Z" fill="white"/>
</svg>
