<svg width="40" height="40" viewBox="0 0 40 40" fill="#4235F2" xmlns="http://www.w3.org/2000/svg">
<path opacity="0.5" fill-rule="evenodd" clip-rule="evenodd" d="M17.1887 15.958C17.3828 15.8466 17.6216 15.8474 17.8149 15.9601L23.8149 19.4601C24.0069 19.5721 24.125 19.7777 24.125 20C24.125 20.2223 24.0069 20.4279 23.8149 20.5399L17.8149 24.0399C17.6216 24.1526 17.3828 24.1534 17.1887 24.042C16.9947 23.9305 16.875 23.7238 16.875 23.5V16.5C16.875 16.2762 16.9947 16.0695 17.1887 15.958ZM18.125 17.5881V22.4119L22.2596 20L18.125 17.5881Z" fill="black"/>
<path fill-rule="evenodd" clip-rule="evenodd" d="M12 13.125C11.5168 13.125 11.125 13.5168 11.125 14V26C11.125 26.4832 11.5168 26.875 12 26.875H28C28.4832 26.875 28.875 26.4832 28.875 26V14C28.875 13.5168 28.4832 13.125 28 13.125H12ZM9.875 14C9.875 12.8264 10.8264 11.875 12 11.875H28C29.1736 11.875 30.125 12.8264 30.125 14V26C30.125 27.1736 29.1736 28.125 28 28.125H12C10.8264 28.125 9.875 27.1736 9.875 26V14Z" fill="black"/>
</svg>
