#4235F2<svg width="40" height="40" viewBox="0 0 40 40" fill="#4235F2" xmlns="http://www.w3.org/2000/svg">
<path opacity="0.5" fill-rule="evenodd" clip-rule="evenodd" d="M18.0296 16.0884C18.2569 15.8287 18.6518 15.8023 18.9116 16.0296L22.9116 19.5296C23.0472 19.6483 23.125 19.8198 23.125 20C23.125 20.1802 23.0472 20.3517 22.9116 20.4704L18.9116 23.9704C18.6518 24.1977 18.2569 24.1713 18.0296 23.9116C17.8023 23.6518 17.8287 23.2569 18.0884 23.0296L20.8366 20.625H10.5C10.1548 20.625 9.875 20.3452 9.875 20C9.875 19.6548 10.1548 19.375 10.5 19.375H20.8366L18.0884 16.9704C17.8287 16.7431 17.8023 16.3482 18.0296 16.0884Z" fill="black"/>
<path fill-rule="evenodd" clip-rule="evenodd" d="M9.875 14C9.875 12.8264 10.8264 11.875 12 11.875H28C29.1736 11.875 30.125 12.8264 30.125 14V26C30.125 27.1736 29.1736 28.125 28 28.125H12C10.8264 28.125 9.875 27.1736 9.875 26V22.5C9.875 22.1548 10.1548 21.875 10.5 21.875C10.8452 21.875 11.125 22.1548 11.125 22.5V26C11.125 26.4832 11.5168 26.875 12 26.875H28C28.4832 26.875 28.875 26.4832 28.875 26V14C28.875 13.5168 28.4832 13.125 28 13.125H12C11.5168 13.125 11.125 13.5168 11.125 14V17.5C11.125 17.8452 10.8452 18.125 10.5 18.125C10.1548 18.125 9.875 17.8452 9.875 17.5V14Z" fill="black"/>
</svg>
