<svg width="40" height="40" viewBox="0 0 40 40" fill="none" xmlns="http://www.w3.org/2000/svg">
<path opacity="0.5" fill-rule="evenodd" clip-rule="evenodd" d="M13.7244 12.8405C13.9685 13.0846 13.9685 13.4803 13.7244 13.7244C10.2585 17.1903 10.2585 22.8097 13.7244 26.2756C13.9685 26.5196 13.9685 26.9154 13.7244 27.1594C13.4803 27.4035 13.0846 27.4035 12.8405 27.1594C8.88649 23.2054 8.88649 16.7946 12.8405 12.8405C13.0846 12.5965 13.4803 12.5965 13.7244 12.8405ZM26.2756 12.8405C26.5196 12.5965 26.9154 12.5965 27.1595 12.8405C31.1135 16.7946 31.1135 23.2054 27.1595 27.1594C26.9154 27.4035 26.5196 27.4035 26.2756 27.1594C26.0315 26.9154 26.0315 26.5196 26.2756 26.2756C29.7415 22.8097 29.7415 17.1903 26.2756 13.7244C26.0315 13.4803 26.0315 13.0846 26.2756 12.8405ZM15.1386 14.2547C15.3827 14.4988 15.3827 14.8945 15.1386 15.1386C12.4538 17.8235 12.4538 22.1765 15.1386 24.8613C15.3827 25.1054 15.3827 25.5012 15.1386 25.7452C14.8946 25.9893 14.4988 25.9893 14.2548 25.7452C11.0817 22.5722 11.0817 17.4278 14.2548 14.2547C14.4988 14.0107 14.8946 14.0107 15.1386 14.2547ZM24.8614 14.2547C25.1054 14.0107 25.5012 14.0107 25.7452 14.2547C28.9183 17.4278 28.9183 22.5722 25.7452 25.7452C25.5012 25.9893 25.1054 25.9893 24.8614 25.7452C24.6173 25.5012 24.6173 25.1054 24.8614 24.8613C27.5462 22.1765 27.5462 17.8235 24.8614 15.1386C24.6173 14.8945 24.6173 14.4988 24.8614 14.2547ZM18.183 16.9613C18.3739 16.849 18.6099 16.8461 18.8035 16.9537L23.3035 19.4537C23.5019 19.5639 23.625 19.773 23.625 20C23.625 20.227 23.5019 20.4361 23.3035 20.5463L18.8035 23.0463C18.6099 23.1539 18.3739 23.151 18.183 23.0387C17.9922 22.9264 17.875 22.7214 17.875 22.5V17.5C17.875 17.2786 17.9922 17.0736 18.183 16.9613ZM19.125 18.5622V21.4378L21.713 20L19.125 18.5622Z" fill="black"/>
<path fill-rule="evenodd" clip-rule="evenodd" d="M20 15.125C17.3076 15.125 15.125 17.3076 15.125 20C15.125 22.6924 17.3076 24.875 20 24.875C22.6924 24.875 24.875 22.6924 24.875 20C24.875 17.3076 22.6924 15.125 20 15.125ZM13.875 20C13.875 16.6173 16.6173 13.875 20 13.875C23.3827 13.875 26.125 16.6173 26.125 20C26.125 23.3827 23.3827 26.125 20 26.125C16.6173 26.125 13.875 23.3827 13.875 20Z" fill="black"/>
</svg>
