<svg width="40" height="40" viewBox="0 0 40 40" fill="none" xmlns="http://www.w3.org/2000/svg">
<path opacity="0.5" fill-rule="evenodd" clip-rule="evenodd" d="M23.875 11.5C23.875 11.1548 24.1548 10.875 24.5 10.875H27.5C27.8452 10.875 28.125 11.1548 28.125 11.5V17.5C28.125 17.8452 27.8452 18.125 27.5 18.125C27.1548 18.125 26.875 17.8452 26.875 17.5V12.125H25.125V14.5C25.125 14.8452 24.8452 15.125 24.5 15.125C24.1548 15.125 23.875 14.8452 23.875 14.5V11.5ZM20.875 20.5C20.875 20.1548 21.1548 19.875 21.5 19.875H24.5C24.8452 19.875 25.125 20.1548 25.125 20.5V23.5C25.125 23.8452 24.8452 24.125 24.5 24.125H21.5C21.1548 24.125 20.875 23.8452 20.875 23.5V20.5ZM22.125 21.125V22.875H23.875V21.125H22.125Z" fill="#4235F2"/>
<path fill-rule="evenodd" clip-rule="evenodd" d="M19.5581 9.55806C19.8021 9.31398 20.1979 9.31398 20.4419 9.55806L29.4419 18.5581C29.686 18.8021 29.686 19.1979 29.4419 19.4419C29.1979 19.686 28.8021 19.686 28.5581 19.4419L20 10.8839L11.4419 19.4419C11.1979 19.686 10.8021 19.686 10.5581 19.4419C10.314 19.1979 10.314 18.8021 10.5581 18.5581L19.5581 9.55806ZM12.5 19.875C12.8452 19.875 13.125 20.1548 13.125 20.5V26.875H14.875V20.5C14.875 20.1548 15.1548 19.875 15.5 19.875H18.5C18.8452 19.875 19.125 20.1548 19.125 20.5V26.875H26.875V20.5C26.875 20.1548 27.1548 19.875 27.5 19.875C27.8452 19.875 28.125 20.1548 28.125 20.5V27.5C28.125 27.8452 27.8452 28.125 27.5 28.125H12.5C12.1548 28.125 11.875 27.8452 11.875 27.5V20.5C11.875 20.1548 12.1548 19.875 12.5 19.875ZM17.875 26.875V21.125H16.125V26.875H17.875Z" fill="#4235F2"/>
</svg>
