<svg width="40" height="40" viewBox="0 0 40 40" fill="#4235F2" xmlns="http://www.w3.org/2000/svg">
<path opacity="0.5" fill-rule="evenodd" clip-rule="evenodd" d="M9.875 12.5C9.875 12.1548 10.1548 11.875 10.5 11.875H16.9505C18.1941 11.875 19.317 12.4882 20 13.4529C20.683 12.4882 21.8059 11.875 23.0495 11.875H29.5C29.8452 11.875 30.125 12.1548 30.125 12.5V26.5C30.125 26.8452 29.8452 27.125 29.5 27.125H25.5C25.1548 27.125 24.875 26.8452 24.875 26.5C24.875 26.1548 25.1548 25.875 25.5 25.875H28.875V13.125H23.0495C21.8845 13.125 20.8789 13.9337 20.625 15.0654V16.5C20.625 16.8452 20.3452 17.125 20 17.125C19.6548 17.125 19.375 16.8452 19.375 16.5V15.0654C19.1211 13.9337 18.1155 13.125 16.9505 13.125H11.125V25.875H14.5C14.8452 25.875 15.125 26.1548 15.125 26.5C15.125 26.8452 14.8452 27.125 14.5 27.125H10.5C10.1548 27.125 9.875 26.8452 9.875 26.5V12.5ZM11.875 15.5C11.875 15.1548 12.1548 14.875 12.5 14.875H17.5C17.8452 14.875 18.125 15.1548 18.125 15.5C18.125 15.8452 17.8452 16.125 17.5 16.125H12.5C12.1548 16.125 11.875 15.8452 11.875 15.5ZM21.875 15.5C21.875 15.1548 22.1548 14.875 22.5 14.875H27.5C27.8452 14.875 28.125 15.1548 28.125 15.5C28.125 15.8452 27.8452 16.125 27.5 16.125H22.5C22.1548 16.125 21.875 15.8452 21.875 15.5ZM11.875 17.5C11.875 17.1548 12.1548 16.875 12.5 16.875H16.5C16.8452 16.875 17.125 17.1548 17.125 17.5C17.125 17.8452 16.8452 18.125 16.5 18.125H12.5C12.1548 18.125 11.875 17.8452 11.875 17.5ZM22.875 17.5C22.875 17.1548 23.1548 16.875 23.5 16.875H27.5C27.8452 16.875 28.125 17.1548 28.125 17.5C28.125 17.8452 27.8452 18.125 27.5 18.125H23.5C23.1548 18.125 22.875 17.8452 22.875 17.5ZM11.875 19.5C11.875 19.1548 12.1548 18.875 12.5 18.875H14.5C14.8452 18.875 15.125 19.1548 15.125 19.5C15.125 19.8452 14.8452 20.125 14.5 20.125H12.5C12.1548 20.125 11.875 19.8452 11.875 19.5ZM24.875 19.5C24.875 19.1548 25.1548 18.875 25.5 18.875H27.5C27.8452 18.875 28.125 19.1548 28.125 19.5C28.125 19.8452 27.8452 20.125 27.5 20.125H25.5C25.1548 20.125 24.875 19.8452 24.875 19.5ZM11.875 21.5C11.875 21.1548 12.1548 20.875 12.5 20.875H13.5C13.8452 20.875 14.125 21.1548 14.125 21.5C14.125 21.8452 13.8452 22.125 13.5 22.125H12.5C12.1548 22.125 11.875 21.8452 11.875 21.5ZM25.875 21.5C25.875 21.1548 26.1548 20.875 26.5 20.875H27.5C27.8452 20.875 28.125 21.1548 28.125 21.5C28.125 21.8452 27.8452 22.125 27.5 22.125H26.5C26.1548 22.125 25.875 21.8452 25.875 21.5ZM11.875 23.5C11.875 23.1548 12.1548 22.875 12.5 22.875H13.5C13.8452 22.875 14.125 23.1548 14.125 23.5C14.125 23.8452 13.8452 24.125 13.5 24.125H12.5C12.1548 24.125 11.875 23.8452 11.875 23.5ZM25.875 23.5C25.875 23.1548 26.1548 22.875 26.5 22.875H27.5C27.8452 22.875 28.125 23.1548 28.125 23.5C28.125 23.8452 27.8452 24.125 27.5 24.125H26.5C26.1548 24.125 25.875 23.8452 25.875 23.5Z" fill="black"/>
<path fill-rule="evenodd" clip-rule="evenodd" d="M20 17.125C16.7553 17.125 14.125 19.7553 14.125 23C14.125 26.2447 16.7553 28.875 20 28.875C23.2447 28.875 25.875 26.2447 25.875 23C25.875 19.7553 23.2447 17.125 20 17.125ZM12.875 23C12.875 19.065 16.065 15.875 20 15.875C23.935 15.875 27.125 19.065 27.125 23C27.125 26.935 23.935 30.125 20 30.125C16.065 30.125 12.875 26.935 12.875 23ZM18.183 19.9613C18.3739 19.849 18.6099 19.8461 18.8035 19.9537L23.3035 22.4537C23.5019 22.5639 23.625 22.773 23.625 23C23.625 23.227 23.5019 23.4361 23.3035 23.5463L18.8035 26.0463C18.6099 26.1539 18.3739 26.151 18.183 26.0387C17.9922 25.9264 17.875 25.7214 17.875 25.5V20.5C17.875 20.2786 17.9922 20.0736 18.183 19.9613ZM19.125 21.5622V24.4378L21.713 23L19.125 21.5622Z" fill="black"/>
</svg>
