<svg width="18" height="14" viewBox="0 0 18 14" fill="none" xmlns="http://www.w3.org/2000/svg">
<path d="M4.98278 0.095364C3.93377 0.357615 3.24238 2.09801 3.81457 3.52847L3.76689 3.62383L0.858282 2.9086C0.977487 1.3351 2.45563 0 4.95894 0L4.98278 0.095364Z" fill="white"/>
<path d="M10.0848 3.55231V8.3682C10.0848 9.54018 10.3063 9.7597 10.4931 9.94483L10.4981 9.94979L10.5139 9.96554C10.6426 10.0943 10.7714 10.1715 10.8744 10.2333C10.943 10.2745 11.0003 10.3089 11.0384 10.347V10.3947H9.67946C7.81986 10.3947 6.48477 9.51256 6.50861 7.17615L6.48477 2.40794C6.48477 1.52583 6.22251 0.333775 5.41192 0.0953654L5.43576 0.0238425C8.48741 0.0953656 10.0848 1.12053 10.0848 3.55231Z" fill="white"/>
<path d="M0 7.91521C0 10.8953 4.52979 11.3006 5.98409 8.55892L5.96025 8.53508C4.95893 9.36952 3.38542 8.6066 3.38542 7.12846C3.38542 5.79336 4.38675 4.98277 6.00794 4.69668C6.04369 4.69668 6.07945 4.69072 6.11521 4.68476C6.15097 4.6788 6.18675 4.67284 6.2225 4.67284V4.3629C6.18674 4.3629 6.15098 4.36886 6.11522 4.37482C6.07946 4.38079 6.0437 4.38675 6.00794 4.38675C1.66887 4.91125 0 6.03177 0 7.91521Z" fill="white"/>
<path d="M17.9285 3.9576L16.2834 4.17217C16.1166 4.17217 15.9974 4.29138 15.9735 4.45827V11.6583C15.9735 12.83 16.1949 13.0497 16.4031 13.2561C16.4109 13.2639 16.4187 13.2717 16.4265 13.2794C16.5552 13.4082 16.684 13.4854 16.787 13.5472C16.8556 13.5884 16.9129 13.6228 16.951 13.6609V13.7086H15.5921C13.7325 13.7086 12.3974 12.8265 12.4212 10.49V4.26754C12.4212 4.26754 11.5391 4.29138 10.4186 4.33906V3.98145H10.5139C13.0888 3.62383 15.0676 2.21721 15.8066 0.166884H15.9974V3.67151H18L17.9285 3.9576Z" fill="white"/>
</svg>
