<?xml version="1.0" encoding="UTF-8"?>
<svg width="439px" height="439px" viewBox="0 0 439 439" version="1.1" xmlns="http://www.w3.org/2000/svg" xmlns:xlink="http://www.w3.org/1999/xlink">
    <!-- Generator: Sketch 43.2 (39069) - http://www.bohemiancoding.com/sketch -->
    <title>Shape</title>
    <desc>Created with Sketch.</desc>
    <defs></defs>
    <g id="Page-1" stroke="none" stroke-width="1" fill="none" fill-rule="evenodd">
        <path d="M409.133,109.203 C389.525,75.611 362.928,49.014 329.335,29.407 C295.736,9.801 259.058,0 219.273,0 C179.492,0 142.803,9.801 109.21,29.407 C75.615,49.011 49.018,75.608 29.41,109.203 C9.801,142.8 0,179.489 0,219.267 C0,259.047 9.804,295.73 29.407,329.329 C49.014,362.921 75.611,389.518 109.206,409.127 C142.803,428.732 179.489,438.534 219.269,438.534 C259.049,438.534 295.739,428.732 329.334,409.127 C362.927,389.525 389.523,362.921 409.129,329.329 C428.732,295.733 438.532,259.045 438.532,219.267 C438.533,179.485 428.732,142.795 409.133,109.203 Z M219.27,31.977 C266.471,31.977 307.68,47.584 342.891,78.797 L339.322,83.79 C337.895,85.792 334.326,89.642 328.618,95.355 C322.909,101.063 316.675,106.491 309.919,111.629 C303.157,116.769 293.979,122.621 282.364,129.188 C270.753,135.755 258.382,141.516 245.247,146.464 C223.36,106.109 199.951,69.755 175.016,37.4 C190.055,33.784 204.805,31.977 219.27,31.977 Z M75.1292698,103.700328 C92.4475089,81.8750431 113.552425,65.0942371 138.451599,53.3692839 C160.8219,83.1366366 182.830121,117.23663 204.481,155.662628 C149.636276,170.0956 94.9735397,177.31256 40.489,177.309716 C46.2652219,150.069342 57.8110306,125.530352 75.1292698,103.700328 Z M48.9448605,285.766677 C40.973319,265.388615 36.9885,243.964622 36.9885,221.500407 C36.9885,218.963142 37.0817678,217.060669 37.2606897,215.79394 C102.83842,215.79394 163.795587,207.373191 220.131239,190.523126 C225.92907,201.75333 230.729506,211.807218 234.5335,220.685741 C233.79973,221.047392 232.631027,221.452821 230.999793,221.906788 C229.363799,222.359803 228.189386,222.673868 227.458471,222.857548 L217.407439,226.389352 C210.520849,228.926617 201.506231,233.27499 190.370247,239.430665 C179.231407,245.595857 167.412093,252.927847 154.912305,261.443768 C142.412517,269.960641 129.505396,281.236527 116.192845,295.279993 C102.878391,309.317748 91.6929178,324.393821 82.6354727,340.514874 C68.1437509,324.393821 56.9144985,306.139029 48.9448605,285.766677 Z M217.994887,402.231012 C175.910558,402.231012 138.32379,388.741161 105.23175,361.767128 L109.278611,364.735897 C115.572363,350.884162 124.832994,337.57478 137.065229,324.808696 C149.295574,312.042612 161.074273,301.741684 172.40416,293.916304 C183.734048,286.098483 196.052265,278.725694 209.362592,271.793213 C222.670084,264.873959 231.747411,260.463325 236.607802,258.581152 C241.464413,256.69331 245.331749,255.206091 248.208866,254.125164 L248.74555,253.853988 L249.288848,253.853988 C266.907763,300.073051 279.502826,344.856862 287.05325,388.198808 C264.752524,397.554871 241.736534,402.228178 217.994887,402.231012 Z M372.558518,316.405086 C359.526215,336.570647 343.233523,353.259323 323.692469,366.461862 C316.466693,325.960505 305.202438,284.660705 289.8775,242.576338 C324.921129,237.111209 360.932512,239.669374 397.9135,250.231406 C394.037856,274.181016 385.584345,296.243227 372.558518,316.405086 Z M396.235737,213.031409 C394.453124,212.677321 392.221812,212.27265 389.54836,211.829573 C386.874907,211.386495 383.617867,210.848807 379.783795,210.224939 C375.955344,209.601071 371.669764,209.023104 366.948601,208.487289 C362.222754,207.952411 357.186847,207.463434 351.833385,207.017546 C346.48648,206.569785 340.779868,206.216634 334.721042,205.946854 C328.651911,205.68082 322.504095,205.545929 316.262605,205.545929 C310.027672,205.545929 303.469564,205.72672 296.60889,206.080807 C289.746342,206.432084 283.106737,207.063446 276.68914,207.953348 C276.150516,207.060636 275.483558,205.589019 274.681709,203.537562 C273.880798,201.488914 273.296273,199.926434 272.950616,198.856678 C269.558685,191.368389 265.634687,182.898397 261.173,173.451387 C273.476127,168.455759 285.202222,162.70793 296.352223,156.198533 C307.49192,149.689135 316.400305,143.898217 323.090493,138.817346 C329.777871,133.730854 336.106478,128.337113 342.078188,122.633311 C348.053644,116.928572 351.926122,112.963357 353.715293,110.733919 C355.500717,108.500733 357.193404,106.318132 358.796164,104.181431 L359.065008,103.91165 C385.095104,135.648359 398.383679,172.197094 398.912,213.56535 L396.235737,213.031409 Z" id="Shape" fill="#000000" fill-rule="nonzero"></path>
    </g>
</svg>