<?xml version="1.0" encoding="UTF-8"?>
<svg width="18px" height="15px" viewBox="0 0 18 15" version="1.1" xmlns="http://www.w3.org/2000/svg" xmlns:xlink="http://www.w3.org/1999/xlink">
    <!-- Generator: Sketch 43.2 (39069) - http://www.bohemiancoding.com/sketch -->
    <title>icon_mail-blue</title>
    <desc>Created with Sketch.</desc>
    <defs></defs>
    <g id="Page-1" stroke="none" stroke-width="1" fill="none" fill-rule="evenodd">
        <path d="M1.72741932,4.58784089 C1.31216689,4.30679434 0.920334994,3.91973901 0.552539978,3.42806163 C0.184128632,2.93561385 0,2.47875912 0,2.05688114 C0,1.53438725 0.138982448,1.09925817 0.416485098,0.751339801 C0.694604077,0.402959184 1.09121253,0.229 1.60708086,0.229 L16.3899135,0.229 C16.8250426,0.229 17.2019285,0.386010105 17.5196467,0.700800728 C17.837519,1.01559135 17.9969944,1.39417215 17.9969944,1.83592678 C17.9969944,2.36504621 17.8325883,2.86997469 17.5045466,3.35209894 C17.176659,3.8342232 16.7684943,4.24593174 16.2797445,4.58722456 C13.7620359,6.33513686 12.1953246,7.42265141 11.5796108,7.85130903 C11.5128931,7.89815012 11.3702127,8.00046092 11.1523399,8.15762511 C10.9350836,8.31525154 10.7544988,8.44221556 10.6105857,8.53913347 C10.4662104,8.63666772 10.2922512,8.74498774 10.0882459,8.86594253 C9.88408659,8.98581875 9.69148342,9.07672744 9.51105277,9.13681963 C9.3298517,9.1970659 9.16251807,9.227112 9.00843553,9.227112 L8.98855888,9.227112 C8.83447634,9.227112 8.66714271,9.1970659 8.48594165,9.13681963 C8.30535691,9.07672744 8.11275374,8.98643508 7.90874846,8.86594253 C7.70412685,8.74498774 7.53016767,8.63666772 7.38640866,8.53913347 C7.24249557,8.44221556 7.06191084,8.31525154 6.84403813,8.15762511 C6.62678175,8.00046092 6.48410132,7.89815012 6.4172295,7.85130903 C5.80814123,7.42326774 4.93125752,6.81233048 3.78580794,6.01849725 C2.64112877,5.22528035 1.95499923,4.74854898 1.72741932,4.58784089 Z M16.9923763,5.66225842 C17.3740387,5.40093444 17.708706,5.10971844 17.9969944,4.78830227 L17.9969944,12.7620736 C17.9969944,13.2044445 17.8398302,13.582409 17.5250396,13.8971996 C17.210249,14.2119902 16.8316682,14.3690003 16.3899135,14.3690003 L1.60708086,14.3690003 C1.16517215,14.3690003 0.786591352,14.2119902 0.471800728,13.8971996 C0.157164188,13.582409 0,13.2044445 0,12.7620736 L0,4.78830227 C0.294297646,5.11634399 0.632508815,5.40755999 1.01417126,5.66225842 C3.43788957,7.3089385 5.10151872,8.46394119 6.00567505,9.12665018 C6.38718341,9.40831306 6.69719747,9.62741843 6.9343305,9.78442854 C7.17207985,9.94220905 7.48871947,10.1029171 7.88347893,10.2665528 C8.27839247,10.4309589 8.64664973,10.5127767 8.98855888,10.5127767 L9.00843553,10.5127767 C9.35034468,10.5127767 9.71798561,10.4309589 10.1135155,10.2665528 C10.5082749,10.1029171 10.8249146,9.94220905 11.0620476,9.78442854 C11.2997969,9.62741843 11.609811,9.40831306 11.9913194,9.12665018 C13.1295271,8.30323311 14.7967001,7.14823041 16.9923763,5.66225842 Z" id="icon_mail-blue" fill="#039FF6"></path>
    </g>
</svg>