<svg width="40" height="40" viewBox="0 0 40 40" fill="none" xmlns="http://www.w3.org/2000/svg">
<path opacity="0.5" fill-rule="evenodd" clip-rule="evenodd" d="M12 13.125C11.5168 13.125 11.125 13.5168 11.125 14V26C11.125 26.4832 11.5168 26.875 12 26.875H12.5C12.8452 26.875 13.125 27.1548 13.125 27.5C13.125 27.8452 12.8452 28.125 12.5 28.125H12C10.8264 28.125 9.875 27.1736 9.875 26V14C9.875 12.8264 10.8264 11.875 12 11.875H28C29.1736 11.875 30.125 12.8264 30.125 14V26C30.125 27.1736 29.1736 28.125 28 28.125H22.5C22.1548 28.125 21.875 27.8452 21.875 27.5C21.875 27.1548 22.1548 26.875 22.5 26.875H28C28.4832 26.875 28.875 26.4832 28.875 26V14C28.875 13.5168 28.4832 13.125 28 13.125H12ZM17.875 14.5C17.875 14.1548 18.1548 13.875 18.5 13.875H27.5C27.8452 13.875 28.125 14.1548 28.125 14.5V22.5C28.125 22.8452 27.8452 23.125 27.5 23.125H20.5C20.1548 23.125 19.875 22.8452 19.875 22.5C19.875 22.1548 20.1548 21.875 20.5 21.875H26.875V15.125H19.125V15.5C19.125 15.8452 18.8452 16.125 18.5 16.125C18.1548 16.125 17.875 15.8452 17.875 15.5V14.5Z" fill="#4235F2"/>
<path fill-rule="evenodd" clip-rule="evenodd" d="M13.875 18.5C13.875 16.498 15.498 14.875 17.5 14.875C19.502 14.875 21.125 16.498 21.125 18.5C21.125 19.6522 20.5875 20.6788 19.7495 21.3428C21.7364 22.2107 23.125 24.1932 23.125 26.5V27.5C23.125 27.8452 22.8452 28.125 22.5 28.125C22.1548 28.125 21.875 27.8452 21.875 27.5V26.5C21.875 24.0838 19.9162 22.125 17.5 22.125C15.0838 22.125 13.125 24.0838 13.125 26.5V27.5C13.125 27.8452 12.8452 28.125 12.5 28.125C12.1548 28.125 11.875 27.8452 11.875 27.5V26.5C11.875 24.1932 13.2636 22.2107 15.2505 21.3428C14.4125 20.6788 13.875 19.6522 13.875 18.5ZM17.5 20.875C18.8117 20.875 19.875 19.8117 19.875 18.5C19.875 17.1883 18.8117 16.125 17.5 16.125C16.1883 16.125 15.125 17.1883 15.125 18.5C15.125 19.8117 16.1883 20.875 17.5 20.875ZM14.5 25.875C14.8452 25.875 15.125 26.1548 15.125 26.5V27.5C15.125 27.8452 14.8452 28.125 14.5 28.125C14.1548 28.125 13.875 27.8452 13.875 27.5V26.5C13.875 26.1548 14.1548 25.875 14.5 25.875ZM20.5 25.875C20.8452 25.875 21.125 26.1548 21.125 26.5V27.5C21.125 27.8452 20.8452 28.125 20.5 28.125C20.1548 28.125 19.875 27.8452 19.875 27.5V26.5C19.875 26.1548 20.1548 25.875 20.5 25.875Z" fill="#4235F2"/>
</svg>
