<svg width="34" height="42" viewBox="0 0 34 42" fill="none" xmlns="http://www.w3.org/2000/svg">
<path fill-rule="evenodd" clip-rule="evenodd" d="M14.5472 40.7882L12.7945 39.6157C12.3524 39.3204 12.0725 38.7817 12.0726 38.2263V32.8822C12.0723 32.7638 11.952 32.684 11.8522 32.7344L9.04888 34.1381C8.7881 34.2693 8.46632 34.1636 8.32089 33.8974L5.37735 28.5116C5.29977 28.3713 5.0893 28.4315 5.08918 28.595V33.0299C5.08901 33.6412 4.43303 34.0227 3.94983 33.6996L1.3816 31.9814C0.642636 31.4762 0.187952 30.5786 0.200251 29.6411V12.3695C0.186579 11.4307 0.641477 10.5314 1.3816 10.0257L14.5472 1.21772C16.0292 0.216164 17.9707 0.216164 19.4527 1.21772L32.6183 10.0257C33.3584 10.5314 33.8133 11.4307 33.7996 12.3695V29.6411C33.8119 30.5786 33.3573 31.4762 32.6183 31.9814L30.0501 33.6996C29.5669 34.0227 28.9109 33.6412 28.9107 33.0299V28.595C28.9106 28.4315 28.7001 28.3713 28.6225 28.5116L25.679 33.8974C25.5336 34.1636 25.2118 34.2693 24.951 34.1381L22.1477 32.7344C22.0479 32.684 21.9276 32.7638 21.9273 32.8822V38.2263C21.9274 38.7817 21.6475 39.3204 21.2054 39.6157L19.4527 40.7882C17.9683 41.7816 16.0316 41.7816 14.5472 40.7882ZM18.1757 4.2955L27.5624 10.6024C28.1146 10.9742 28.114 11.5759 27.5608 11.9489L24.6128 13.9328C24.0598 14.3046 23.164 14.3058 22.6118 13.934L20.0067 12.1836C19.8844 12.1107 19.7285 12.1112 19.6066 12.1848L18.5052 12.926C18.3973 12.9754 18.3973 13.1446 18.5052 13.1941L21.1102 14.9444C21.6625 15.3162 21.6618 15.918 21.1089 16.2909L18.1609 18.2737C17.6078 18.6466 16.712 18.6466 16.1598 18.276L6.77294 11.9691C6.22079 11.5974 6.22135 10.9956 6.77428 10.6239L9.72274 8.63992C10.2757 8.26696 11.1715 8.26696 11.7237 8.63754L14.3287 10.3879C14.451 10.4606 14.6066 10.4606 14.7289 10.3879L15.8302 9.64678C15.938 9.59671 15.938 9.42757 15.8302 9.37749L13.2251 7.6271C12.673 7.25533 12.6737 6.65359 13.2266 6.28182L16.1746 4.29789C16.7275 3.92493 17.6234 3.92493 18.1757 4.2955Z" fill="#4235F2"/>
</svg>
